<?xml version="1.0" encoding="utf-8"?>
<!-- Generator: Adobe Illustrator 17.0.0, SVG Export Plug-In . SVG Version: 6.00 Build 0)  -->
<!DOCTYPE svg PUBLIC "-//W3C//DTD SVG 1.1//EN" "http://www.w3.org/Graphics/SVG/1.1/DTD/svg11.dtd">
<svg version="1.1" id="图层_1" xmlns="http://www.w3.org/2000/svg" xmlns:xlink="http://www.w3.org/1999/xlink" x="0px" y="0px"
	 width="184px" height="228px" viewBox="0 0 184 228" enable-background="new 0 0 184 228" xml:space="preserve">
<g>
	<g>
		<path fill="#555656" d="M38.721,31.702c-0.208-0.534-0.819-0.804-1.367-0.602l-4.362,1.606l-5.498-2.869
			c-0.653-0.288-0.673-0.341-1.132-0.171l-1.957,0.72c-0.607,0.221-0.32,0.426,0.612,1.409l2.754,2.834l-6.923,2.549
			c0.689,0.103,4.878,0.414,5.831,0.063l11.425-4.206C38.652,32.833,38.928,32.236,38.721,31.702z M24.273,35.49l-2.326-1.178
			c-0.689-0.358-0.956-0.356-1.986,0.023l-1.062,0.391l2.01,2.003L24.273,35.49z"/>
	</g>
</g>
<g>
	<g>
		<path fill="#4C4C4C" d="M37.011,60.339l-4.631,0.014l-4.064-4.526c-0.503-0.488-0.502-0.544-0.989-0.543l-2.077,0.006
			c-0.644-0.001-0.452,0.287,0.057,1.516l1.53,3.563l-7.35,0.022c0.602,0.328,4.378,2.037,5.39,2.034l12.131-0.036
			c0.582-0.002,1.055-0.462,1.056-1.028C38.063,60.795,37.592,60.338,37.011,60.339z M23.278,59.985l-1.732-1.882
			c-0.51-0.565-0.758-0.654-1.853-0.652l-1.128,0.003l1.14,2.54L23.278,59.985z M26.057,63.566c-0.606,0-1.097,0.473-1.097,1.056
			c0,0.583,0.491,1.056,1.097,1.056s1.097-0.473,1.097-1.056C27.154,64.04,26.663,63.566,26.057,63.566z M34.101,63.566
			c-0.606,0-1.097,0.473-1.097,1.056c0,0.583,0.491,1.056,1.097,1.056c0.606,0,1.097-0.473,1.097-1.056
			C35.198,64.04,34.706,63.566,34.101,63.566z"/>
	</g>
</g>
<path fill="#373838" d="M35.351,96.425V97.5h-15v-1.075l0,0v-6.989V88.36v-2.688c0-0.591,0.45-1.075,1-1.075h2.5v1.075h-2.5v2.688
	h13v-2.688h-2.5v-1.075h2.5c0.55,0,1,0.484,1,1.075v2.688v1.075V96.425L35.351,96.425z M28.643,90.499v2.329H23.35V94.5h10.367
	L28.643,90.499z M30.851,86.747c-0.3,0-0.5-0.215-0.5-0.538v-3.172c0-0.323,0.2-0.538,0.5-0.538s0.5,0.215,0.5,0.538v3.172
	C31.351,86.532,31.151,86.747,30.851,86.747z M25.851,84.597h4v1.075h-4V84.597z M24.851,86.747c-0.3,0-0.5-0.215-0.5-0.538v-3.172
	c0-0.323,0.2-0.538,0.5-0.538s0.5,0.215,0.5,0.538v3.172C25.351,86.532,25.151,86.747,24.851,86.747z"/>
<path fill="#373838" d="M35.351,124.925V126h-15v-1.075l0,0v-6.989v-1.075v-2.688c0-0.591,0.45-1.075,1-1.075h2.5v1.075h-2.5v2.688
	h13v-2.688h-2.5v-1.075h2.5c0.55,0,1,0.484,1,1.075v2.688v1.075V124.925L35.351,124.925z M33.351,121.329h-5.293V119l-5.074,4
	h10.367V121.329z M30.851,115.247c-0.3,0-0.5-0.215-0.5-0.538v-3.172c0-0.323,0.2-0.538,0.5-0.538s0.5,0.215,0.5,0.538v3.172
	C31.351,115.032,31.151,115.247,30.851,115.247z M25.851,113.097h4v1.075h-4V113.097z M24.851,115.247c-0.3,0-0.5-0.215-0.5-0.538
	v-3.172c0-0.323,0.2-0.538,0.5-0.538s0.5,0.215,0.5,0.538v3.172C25.351,115.032,25.151,115.247,24.851,115.247z"/>
<path fill="#393A3A" d="M24.879,148.099c0.389-0.135,0.814,0.096,0.951,0.516c0.137,0.42-0.066,0.869-0.455,1.004
	s-0.814-0.096-0.952-0.516C24.287,148.683,24.491,148.234,24.879,148.099L24.879,148.099z M30.325,148.099
	c0.388-0.135,0.814,0.096,0.951,0.516c0.137,0.42-0.066,0.869-0.455,1.004c-0.388,0.135-0.814-0.096-0.951-0.516
	C29.733,148.683,29.937,148.234,30.325,148.099L30.325,148.099z M34.227,147.943c-0.036,0-0.071,0.003-0.106,0.005
	c0.005-0.102,0.007-0.205,0.008-0.307c0-0.383-0.034-0.764-0.1-1.141c0.124-0.016,0.247-0.033,0.371-0.051
	c0,0-0.916-5.616-6.479-5.616c-4.928,0-6.372,3.989-6.637,5.564c0,0,0.128,0.031,0.352,0.072c-0.067,0.382-0.101,0.77-0.101,1.158
	c0,0.102,0.003,0.204,0.007,0.305c-0.021,0-0.042-0.003-0.063-0.003c-0.898-0.001-1.626,0.748-1.627,1.674
	c-0.001,0.926,0.726,1.677,1.624,1.678c0.195,0,0.389-0.037,0.571-0.108c0.773,2.119,3.067,3.658,5.778,3.661
	c2.717,0.003,5.018-1.537,5.791-3.662c0.193,0.081,0.4,0.123,0.608,0.123c0.898,0.001,1.626-0.748,1.628-1.674
	C35.852,148.695,35.124,147.944,34.227,147.943L34.227,147.943L34.227,147.943z M35.001,149.827c-0.13,0.464-0.465,0.55-0.771,0.583
	c-0.51,0.054-1.115-0.205-1.115-0.205c-0.94,2.281-2.908,3.623-5.513,3.547c-3.922-0.114-4.896-3.533-4.896-3.533
	c-0.206,0.144-0.62,0.206-1.047,0.206c-0.336,0-0.793-0.209-0.87-0.756c-0.077-0.535,0.363-0.877,0.718-0.976
	c0.336-0.094,0.871-0.157,0.871-0.157c0.017-0.476,0.061-0.917,0.127-1.327c0.032-0.198,0.07-0.396,0.116-0.591
	c0.447,0.052,0.976,0.093,1.536,0.093l0.973-1.626l0.865,1.795c0,0,3.444,0.124,7.125-0.271c0.048,0.229,0.087,0.46,0.117,0.692
	c0.096,0.732,0.045,1.223,0.045,1.223c0.628,0.036,1.04,0.138,1.295,0.264C34.909,148.953,35.138,149.336,35.001,149.827
	L35.001,149.827L35.001,149.827z"/>
<path fill="#323333" d="M33.551,179.16c-1.187,2.039-3.29,3.315-5.603,3.315c-0.019,0-0.038-0.004-0.057-0.004
	c-0.014,0-0.027,0.004-0.041,0.004c-0.075,0-0.145-0.016-0.219-0.022c-2.207-0.112-4.19-1.371-5.317-3.344
	c-1.107-0.07-1.983-1.043-1.983-2.233c0-0.814,0.415-1.547,1.058-1.939c0.136-1.786,0.908-3.377,2.071-4.527
	c0.493-1.126,2.492-1.969,4.891-1.969c0.937,0,1.803,0.137,2.554,0.36c-0.001-0.001-0.001-0.003-0.002-0.004
	c-0.233-0.245-0.54-0.379-0.861-0.384c-0.254-0.004-0.457-0.227-0.453-0.496c0.004-0.27,0.214-0.484,0.469-0.479
	c0.554,0.011,1.087,0.243,1.491,0.665c0.323,0.339,0.486,0.765,0.567,1.204c0.768,0.44,1.249,1.009,1.249,1.639
	c0,0.159-0.037,0.312-0.093,0.463c0.001,0.001,0.002,0.001,0.003,0.002c0.746,1.087,1.182,2.379,1.246,3.742
	c0.527,0.415,0.85,1.075,0.849,1.791C35.37,178.073,34.58,179.009,33.551,179.16z M27.851,181.472c0.831,0,1.504-0.673,1.504-1.504
	s-0.673-1.504-1.504-1.504s-1.504,0.673-1.504,1.504S27.02,181.472,27.851,181.472z M33.844,175.846l-0.233-0.138l-0.004-0.28
	c-0.014-1.167-0.354-2.271-0.948-3.22c-0.871,0.741-2.464,1.244-4.308,1.244c-2.235,0-4.106-0.736-4.753-1.746
	c-0.763,0.979-1.256,2.203-1.306,3.562l-0.011,0.317l-0.278,0.117c-0.449,0.19-0.751,0.652-0.751,1.173
	c0,0.697,0.533,1.262,1.191,1.262c0.033,0,0.066-0.002,0.099-0.004l0.298-0.025l0.144,0.278c0.582,1.123,1.482,1.996,2.548,2.53
	c-0.12-0.293-0.188-0.612-0.188-0.947c0-0.122,0.019-0.238,0.036-0.355c0.046-0.484,0.185-0.721,0.348-0.964
	c0.442-0.711,1.224-1.187,2.123-1.187s1.681,0.477,2.123,1.188c0.201,0.394,0.253,0.407,0.347,0.962
	c0.017,0.117,0.036,0.234,0.036,0.356c0,0.388-0.095,0.75-0.253,1.078c1.159-0.505,2.141-1.409,2.774-2.592l0.13-0.243l0.264-0.004
	c0.653-0.008,1.178-0.57,1.178-1.262C34.451,176.486,34.215,176.068,33.844,175.846z M30.635,176.218
	c-0.509,0-0.922-0.437-0.922-0.976c0-0.538,0.412-0.975,0.922-0.975c0.25,0,0.478,0.108,0.643,0.279
	c0.17,0.176,0.277,0.424,0.277,0.696C31.555,175.781,31.142,176.218,30.635,176.218z M25.146,176.218
	c-0.508,0-0.921-0.437-0.921-0.976c0-0.538,0.412-0.975,0.921-0.975c0.251,0,0.478,0.108,0.645,0.279
	c0.17,0.176,0.276,0.424,0.276,0.696C26.067,175.781,25.654,176.218,25.146,176.218z"/>
<g>
	<g>
		<path fill="#343535" d="M36.785,198.299c-0.188-0.493-0.741-0.742-1.236-0.556l-3.946,1.483l-4.974-2.65
			c-0.591-0.266-0.609-0.315-1.025-0.159l-1.77,0.665c-0.549,0.204-0.289,0.393,0.553,1.302l2.491,2.617l-6.263,2.354
			c0.623,0.095,4.413,0.383,5.274,0.059l10.336-3.885C36.722,199.343,36.972,198.792,36.785,198.299z M23.716,201.797l-2.104-1.088
			c-0.623-0.33-0.865-0.329-1.797,0.021l-0.96,0.361l1.818,1.85L23.716,201.797z M23.18,210.139h-0.581
			c-0.321,0-0.584,0.269-0.584,0.597s0.263,0.597,0.584,0.597h10.976c0.161,0,0.292-0.134,0.292-0.299v-9.79l-10.685,4.264
			L23.18,210.139z M25.077,205.348c0-0.164,0.128-0.33,0.283-0.37l4.196-1.045c0.157-0.039,0.283,0.063,0.283,0.228v0.437
			c0,0.164-0.128,0.33-0.283,0.369l-4.196,1.045c-0.157,0.039-0.283-0.063-0.283-0.228V205.348z M25.077,207.415
			c0-0.164,0.128-0.33,0.283-0.369l4.196-1.045c0.157-0.039,0.283,0.063,0.283,0.228v0.437c0,0.164-0.128,0.33-0.283,0.369
			l-4.196,1.045c-0.157,0.039-0.283-0.063-0.283-0.228V207.415z"/>
	</g>
</g>
<path fill="#2C2D2D" d="M88.987,22.112h-1.132c-0.313,0-0.674,0.213-0.674,0.559s0.361,0.691,0.674,0.691h1.132
	c0.674,0,1.132,0.505,1.132,1.25V39c0,0.745-0.457,1.25-1.132,1.25H76.802c-0.674,0-1.421-0.506-1.421-1.25V24.612
	c0-0.745,0.458-1.25,1.132-1.25h1.421c0.313,0,0.433-0.346,0.433-0.691c0-0.346-0.12-0.559-0.433-0.559h-1.421
	c-1.589,0-2.263,1.09-2.263,2.527v14.229c0,1.542,0.843,2.633,2.384,2.633h12.232c1.541,0,2.384-0.904,2.384-2.633v-14.23
	C91.25,23.202,90.455,22.112,88.987,22.112L88.987,22.112z M77.934,27.75c0,0.346,0.265,0.638,0.578,0.638h8.5
	c0.313,0,0.578-0.292,0.578-0.638s-0.265-0.638-0.578-0.638h-8.5C78.199,27.112,77.934,27.404,77.934,27.75L77.934,27.75z
	 M86.988,30.569h-8.476c-0.313,0-0.578,0.293-0.578,0.638s0.265,0.638,0.578,0.638h8.5c0.313,0,0.578-0.293,0.578-0.638
	C87.566,30.835,87.301,30.569,86.988,30.569L86.988,30.569z M86.988,34.319h-8.476c-0.313,0-0.578,0.293-0.578,0.638
	s0.265,0.638,0.578,0.638h8.5c0.313,0,0.578-0.292,0.578-0.638C87.566,34.585,87.301,34.319,86.988,34.319L86.988,34.319z
	 M80.8,23.681h3.949c0.458,0,0.843-0.505,0.843-1.09c0-0.585-0.385-1.091-0.867-1.091H80.8c-0.482,0-0.867,0.506-0.867,1.091
	C79.933,23.176,80.318,23.681,80.8,23.681L80.8,23.681z"/>
<g>
	<g>
		<path fill="#323333" d="M87.627,55.601h-9.729v1.187h9.729V55.601z M87.595,57.988h-9.729v1.187h9.729V57.988z M75.466,53.207
			h14.593v9.5h1.216v-9.5c0-0.656-0.544-1.188-1.216-1.188H75.466c-0.672,0-1.216,0.532-1.216,1.188v16.625
			c0,0.656,0.544,1.188,1.216,1.188h8.513v-1.188h-8.513V53.207z M82.862,60.363h-4.997v1.188h3.697
			C81.906,61.07,82.349,60.666,82.862,60.363z M92.07,69.92l-2.789-2.691c0.641-0.727,1.029-1.674,1.029-2.709
			c0-2.295-1.906-4.156-4.256-4.156c-2.351,0-4.256,1.861-4.256,4.156s1.906,4.156,4.256,4.156c0.851,0,1.644-0.244,2.309-0.664
			l2.848,2.748c0.237,0.232,0.622,0.232,0.86,0C92.307,70.528,92.307,70.152,92.07,69.92z M86.054,67.489
			c-1.679,0-3.04-1.329-3.04-2.969c0-1.639,1.361-2.969,3.04-2.969s3.04,1.329,3.04,2.969C89.094,66.16,87.733,67.489,86.054,67.489
			z M80.848,63.925c0-0.413,0.062-0.811,0.177-1.188H77.89v1.188H80.848z"/>
	</g>
</g>
<g>
	<g>
		<path fill="#343535" d="M143.588,22.478h-6.218v1.565h6.218V22.478z M145.935,25.567c0.453,0,0.782-0.329,0.782-0.782v-3.871
			c0-0.453-0.329-0.782-0.782-0.782s-0.782,0.33-0.782,0.782v3.871C145.153,25.278,145.482,25.567,145.935,25.567z M135.065,25.567
			c0.453,0,0.782-0.329,0.782-0.782v-3.871c0-0.453-0.329-0.782-0.782-0.782s-0.782,0.33-0.782,0.782v3.871
			C134.282,25.278,134.612,25.567,135.065,25.567z M152.153,22.478h-3.871v1.565h4.653v5.435h-24.912v-5.477h4.653v-1.523h-3.871
			c-1.071,0-2.306,1.194-2.306,2.265v21.412c0,1.112,0.906,1.976,1.977,1.976h24.047c1.071,0,1.977-0.906,1.977-1.976V24.743
			C154.5,23.672,153.265,22.478,152.153,22.478z M138.648,43.716c-0.708,0.602-1.65,0.903-2.826,0.903
			c-1.035,0-1.87-0.193-2.505-0.579v-1.433c0.748,0.579,1.593,0.868,2.534,0.868c0.753,0,1.349-0.185,1.789-0.554
			s0.66-0.865,0.66-1.486c0-1.383-0.99-2.075-2.971-2.075h-0.91v-1.143h0.868c1.755,0,2.633-0.649,2.633-1.948
			c0-1.2-0.671-1.8-2.011-1.8c-0.767,0-1.489,0.259-2.167,0.776v-1.306c0.715-0.414,1.55-0.621,2.505-0.621
			c0.932,0,1.68,0.243,2.244,0.73c0.565,0.487,0.847,1.119,0.847,1.895c0,1.43-0.729,2.35-2.188,2.759v0.028
			c0.791,0.085,1.415,0.364,1.874,0.836c0.459,0.473,0.688,1.062,0.688,1.768C139.71,42.321,139.356,43.114,138.648,43.716z
			 M147.314,43.155c-0.652,0.976-1.565,1.464-2.742,1.464c-1.11,0-1.97-0.463-2.579-1.39s-0.914-2.275-0.914-4.044
			c0-1.929,0.32-3.388,0.96-4.379c0.64-0.99,1.567-1.486,2.781-1.486c2.315,0,3.472,1.868,3.472,5.604
			C148.292,40.768,147.966,42.178,147.314,43.155z M144.742,34.47c-1.501,0-2.251,1.55-2.251,4.651c0,2.903,0.736,4.354,2.209,4.354
			c1.449,0,2.174-1.475,2.174-4.425C146.874,35.997,146.163,34.47,144.742,34.47z"/>
	</g>
</g>
</svg>
